<svg width="18" height="18" viewBox="0 0 18 18" fill="none" xmlns="http://www.w3.org/2000/svg">
  <path d="M7.75832 8.771C7.98132 7.286 8.45832 3.121 8.54532 2.339C8.54532 2.336 8.54632 2.333 8.54632 2.33C8.54732 2.325 8.54932 2.323 8.55032 2.318C8.55032 2.316 8.54932 2.314 8.54932 2.312C8.56032 2.242 8.53132 2.164 8.46832 2.099C8.40232 2.03 8.30532 1.983 8.19632 1.968C3.87632 1.361 2.12532 1.111 1.41632 1.008C1.38032 1.003 1.34632 1 1.31632 1C1.18632 1 1.12932 1.049 1.10332 1.09C1.05032 1.179 1.10932 1.285 1.13432 1.315C1.55532 1.825 2.18532 2.59 2.91532 3.476C4.65232 5.586 6.81532 8.213 7.38832 8.883C7.44432 8.949 7.50632 8.983 7.57232 8.983C7.62132 8.983 7.73632 8.963 7.75732 8.77C7.75832 8.772 7.75832 8.771 7.75832 8.771Z" stroke="#757575" stroke-width="1.5" stroke-linejoin="round"/>
  <path d="M7.75312 9.33699C7.74512 9.33099 7.73812 9.32099 7.72912 9.31599C7.69612 9.29699 7.65812 9.28699 7.61712 9.28699C7.51212 9.28699 7.40512 9.35799 7.39612 9.43099C7.33612 9.95799 7.23012 10.849 7.10612 11.882C6.86312 13.917 6.82312 15.908 6.71912 16.971L6.90112 17C7.09012 16.448 7.02312 16.514 7.23612 16.088C7.48812 15.585 7.77012 15.144 8.07612 14.777C8.42112 14.362 8.81112 14.023 9.23412 13.77C9.70012 13.491 10.2241 13.307 10.7901 13.222C10.8291 13.216 10.8631 13.193 10.8781 13.162C10.8851 13.147 10.8981 13.105 10.8581 13.059C10.8421 13.04 7.75312 9.33699 7.75312 9.33699Z" stroke="#757575" stroke-width="1.5" stroke-linejoin="round"/>
  <path d="M10.7733 12.96C10.8303 13.022 10.8953 13.056 10.9663 13.056C11.0623 13.056 11.1353 12.998 11.1893 12.956C11.2023 12.945 11.2153 12.935 11.2263 12.928C11.7303 12.588 12.7393 11.898 13.6293 11.288C14.2673 10.852 14.8183 10.474 15.0323 10.33C15.0953 10.287 15.5323 9.915 15.5183 9.868C15.5093 9.836 15.0663 10.122 14.9733 10.109C14.6903 10.07 13.9093 9.958 12.9223 9.816C11.5263 9.616 9.78829 9.367 8.63729 9.205C8.61029 9.201 8.00029 9.11 7.89429 9.097C7.88429 9.096 7.87429 9.095 7.86329 9.095C7.80129 9.095 7.74829 9.121 7.72229 9.163C7.69429 9.208 7.70329 9.275 7.74329 9.325L10.7733 12.96Z" stroke="#757575" stroke-width="1.5" stroke-linejoin="round"/>
  <path d="M15.1613 9.788C14.5243 9.024 13.3663 7.615 12.2473 6.253C10.8323 4.52999 9.36829 2.749 8.91529 2.22C8.85829 2.154 8.79629 2.12 8.73129 2.12C8.68329 2.12 8.56829 2.141 8.54629 2.331C8.54629 2.334 8.54529 2.337 8.54529 2.34C8.45729 3.124 7.97729 7.32399 7.75529 8.792C7.74429 8.863 7.77429 8.94099 7.83629 9.00599C7.89529 9.06799 7.98429 9.103 8.08029 9.123C8.29829 9.155 8.61729 9.202 8.63529 9.205C9.78629 9.367 11.5243 9.616 12.9203 9.816C13.8463 9.949 14.5743 10.053 14.8963 10.098C14.8963 10.098 14.8973 10.098 14.8983 10.098C14.9343 10.103 14.9683 10.106 14.9983 10.106C15.1233 10.106 15.1773 10.058 15.2013 10.019C15.2543 9.932 15.1903 9.823 15.1613 9.788Z" stroke="#757575" stroke-width="1.5" stroke-linejoin="round"/>
  <path d="M16.5701 5.70607L16.5703 5.70598L17.2962 6.61066C17.2978 6.61271 17.2994 6.61476 17.301 6.61684C17.2988 6.61405 17.2966 6.61133 17.2944 6.60867L16.5701 5.70607ZM17.4192 6.95399C17.4192 6.94955 17.4191 6.94513 17.419 6.94075C17.4192 6.94611 17.4192 6.95141 17.4192 6.95666L17.4192 6.95748C17.4192 6.96006 17.4191 6.96263 17.4191 6.9652C17.4191 6.96148 17.4192 6.95775 17.4192 6.95399ZM15.8274 7.30297C15.8655 7.32853 15.9062 7.3492 15.9477 7.36471C15.9048 7.34905 15.8645 7.32829 15.8274 7.30297ZM15.8751 5.56332C15.8544 5.5743 15.834 5.58679 15.8141 5.60077C15.8334 5.5871 15.8538 5.57458 15.8751 5.56332ZM16.5695 5.70499L16.5619 5.69602C16.5597 5.6935 16.5576 5.691 16.5554 5.68853C16.5603 5.69395 16.565 5.69944 16.5695 5.70499Z" fill="black" stroke="#757575"/>
  <path d="M15.4885 7.659C15.4885 7.41 15.4835 6.917 15.4785 6.482C15.4745 6.123 15.4715 5.783 15.4715 5.643V5.533L15.4365 5.509C15.4345 5.508 15.4115 5.492 15.3695 5.47C15.3105 5.44 14.9895 5.289 14.4315 5.289C14.1765 5.289 13.9115 5.321 13.6435 5.386C13.1305 5.509 12.8205 5.772 12.6525 5.97C12.4685 6.186 12.3635 6.382 12.3605 6.39C13.4435 7.709 14.5455 9.049 15.1615 9.788C15.1655 9.792 15.1815 9.814 15.1815 9.814C15.2165 9.847 15.2695 9.867 15.3265 9.867C15.4275 9.867 15.5075 9.81 15.5165 9.731C15.5175 9.726 15.5175 9.692 15.5165 9.635C15.5145 9.32 15.4985 8.303 15.4885 7.659Z" stroke="#757575" stroke-width="1.5" stroke-linejoin="round"/>
</svg>
