<svg width="19" height="18" viewBox="0 0 19 18" fill="none" xmlns="http://www.w3.org/2000/svg">
  <path d="M2.62695 4.5H4.12695H16.127" stroke="#6274E5" stroke-width="1.5" stroke-linecap="round" stroke-linejoin="round"/>
  <path d="M6.37695 4.5V3C6.37695 2.60218 6.53499 2.22064 6.81629 1.93934C7.0976 1.65804 7.47913 1.5 7.87695 1.5H10.877C11.2748 1.5 11.6563 1.65804 11.9376 1.93934C12.2189 2.22064 12.377 2.60218 12.377 3V4.5M14.627 4.5V15C14.627 15.3978 14.4689 15.7794 14.1876 16.0607C13.9063 16.342 13.5248 16.5 13.127 16.5H5.62695C5.22913 16.5 4.8476 16.342 4.56629 16.0607C4.28499 15.7794 4.12695 15.3978 4.12695 15V4.5H14.627Z" stroke="#6274E5" stroke-width="1.5" stroke-linecap="round" stroke-linejoin="round"/>
  <path d="M7.87695 8.25V12.75" stroke="#6274E5" stroke-width="1.5" stroke-linecap="round" stroke-linejoin="round"/>
  <path d="M10.877 8.25V12.75" stroke="#6274E5" stroke-width="1.5" stroke-linecap="round" stroke-linejoin="round"/>
</svg>
