<svg width="18" height="18" viewBox="0 0 18 18" fill="none" xmlns="http://www.w3.org/2000/svg">
  <path d="M12.172 8.67178H5.82804C3.91204 8.67178 2.76904 7.05478 2.76904 5.05978V16.9998H15.23V4.65479C15.23 4.65479 15.225 5.10178 15.224 5.11978C15.193 7.08678 14.068 8.67178 12.172 8.67178Z" stroke="white" stroke-width="1.5" stroke-linejoin="round"/>
  <path d="M3.9349 3.44092C3.2909 3.44092 2.7699 3.98392 2.7699 4.65392C2.7699 4.65392 2.7699 5.00892 2.7699 5.05992C2.7699 7.05492 3.9129 8.67192 5.8289 8.67192H12.1729C14.0689 8.67192 15.1939 7.08692 15.2259 5.11992C15.2269 5.10192 15.2319 4.65492 15.2319 4.65492C15.2319 3.98492 14.7099 3.44192 14.0669 3.44192H3.9349V3.44092Z" stroke="white" stroke-width="1.5" stroke-linejoin="round"/>
  <path d="M12.4721 14.2032C12.4721 14.4112 12.3101 14.5792 12.1111 14.5792H5.89005C5.69005 14.5792 5.52905 14.4112 5.52905 14.2032V11.7642C5.52905 11.5562 5.69105 11.3882 5.89005 11.3882H12.1111C12.3111 11.3882 12.4721 11.5562 12.4721 11.7642V14.2032V14.2032Z" stroke="white" stroke-width="1.5" stroke-linejoin="round"/>
  <path d="M6.22388 3.441C6.22388 2.093 7.46688 1 8.99988 1C10.5329 1 11.7759 2.093 11.7759 3.441" stroke="white" stroke-width="1.5" stroke-linejoin="round"/>
</svg>
