<svg width="24" height="24" viewBox="0 0 24 24" fill="none" xmlns="http://www.w3.org/2000/svg">
  <path d="M16.2292 11.563H7.77056C5.21589 11.563 3.69189 9.40703 3.69189 6.74703V22.667H20.3066V6.20703C20.3066 6.20703 20.2999 6.80303 20.2986 6.82703C20.2572 9.4497 18.7572 11.563 16.2292 11.563Z" stroke="#6274E5" stroke-width="1.5" stroke-linejoin="round"/>
  <path d="M5.24645 4.58838C4.38778 4.58838 3.69312 5.31238 3.69312 6.20571C3.69312 6.20571 3.69312 6.67905 3.69312 6.74705C3.69312 9.40705 5.21712 11.563 7.77178 11.563H16.2304C18.7585 11.563 20.2584 9.44971 20.3011 6.82705C20.3024 6.80305 20.3091 6.20705 20.3091 6.20705C20.3091 5.31371 19.6131 4.58971 18.7558 4.58971H5.24645V4.58838Z" stroke="#6274E5" stroke-width="1.5" stroke-linejoin="round"/>
  <path d="M16.6292 18.9374C16.6292 19.2147 16.4132 19.4388 16.1478 19.4388H7.85316C7.58649 19.4388 7.37183 19.2147 7.37183 18.9374V15.6854C7.37183 15.4081 7.58783 15.1841 7.85316 15.1841H16.1478C16.4145 15.1841 16.6292 15.4081 16.6292 15.6854V18.9374V18.9374Z" stroke="#6274E5" stroke-width="1.5" stroke-linejoin="round"/>
  <path d="M8.29858 4.58816C8.29858 2.79083 9.95592 1.3335 11.9999 1.3335C14.0439 1.3335 15.7013 2.79083 15.7013 4.58816" stroke="#6274E5" stroke-width="1.5" stroke-linejoin="round"/>
</svg>
