<svg width="24" height="24" viewBox="0 0 24 24" fill="none" xmlns="http://www.w3.org/2000/svg">
  <path d="M6.65306 13.3733C8.70609 13.3733 10.3704 11.709 10.3704 9.65599C10.3704 7.60297 8.70609 5.93866 6.65306 5.93866C4.60004 5.93866 2.93573 7.60297 2.93573 9.65599C2.93573 11.709 4.60004 13.3733 6.65306 13.3733Z" stroke="white" stroke-width="1.5" stroke-linejoin="round"/>
  <path d="M1.33331 21.2493C1.33331 18.304 3.72131 15.916 6.66665 15.916C9.61198 15.916 12 18.304 12 21.2493" stroke="white" stroke-width="1.5" stroke-linejoin="round"/>
  <path d="M17.3204 10.1853C19.3734 10.1853 21.0377 8.52103 21.0377 6.468C21.0377 4.41498 19.3734 2.75067 17.3204 2.75067C15.2673 2.75067 13.603 4.41498 13.603 6.468C13.603 8.52103 15.2673 10.1853 17.3204 10.1853Z" stroke="white" stroke-width="1.5" stroke-linejoin="round"/>
  <path d="M12.4188 15.9854C13.2295 14.072 15.1242 12.728 17.3335 12.728C20.2788 12.728 22.6668 15.116 22.6668 18.0614" stroke="white" stroke-width="1.5" stroke-linejoin="round"/>
</svg>
