<svg width="32" height="32" viewBox="0 0 32 32" fill="none" xmlns="http://www.w3.org/2000/svg">
  <path fill-rule="evenodd" clip-rule="evenodd" d="M24.9431 7.05715C25.4638 7.57785 25.4638 8.42207 24.9431 8.94277L8.94313 24.9428C8.42244 25.4635 7.57822 25.4635 7.05752 24.9428C6.53682 24.4221 6.53682 23.5779 7.05752 23.0572L23.0575 7.05715C23.5782 6.53645 24.4224 6.53645 24.9431 7.05715Z" fill="white"/>
  <path fill-rule="evenodd" clip-rule="evenodd" d="M7.05752 7.05715C7.57822 6.53645 8.42244 6.53645 8.94313 7.05715L24.9431 23.0572C25.4638 23.5779 25.4638 24.4221 24.9431 24.9428C24.4224 25.4635 23.5782 25.4635 23.0575 24.9428L7.05752 8.94277C6.53682 8.42207 6.53682 7.57785 7.05752 7.05715Z" fill="white"/>
</svg>
