<svg width="24" height="24" viewBox="0 0 24 24" fill="none" xmlns="http://www.w3.org/2000/svg">
  <path d="M6.6989 15.0454C8.68565 15.0454 10.2962 13.4348 10.2962 11.448C10.2962 9.46129 8.68565 7.85071 6.6989 7.85071C4.71214 7.85071 3.10156 9.46129 3.10156 11.448C3.10156 13.4348 4.71214 15.0454 6.6989 15.0454Z" stroke="#455564" stroke-width="1.5" stroke-linejoin="round"/>
  <path d="M1.55078 22.6667C1.55078 19.816 3.86145 17.5054 6.71211 17.5054C9.56278 17.5054 11.8721 19.816 11.8721 22.6667" stroke="#455564" stroke-width="1.5" stroke-linejoin="round"/>
  <path d="M4.69336 5.85737V3.25604C4.69336 2.19471 5.59869 1.33337 6.71603 1.33337H20.4267C21.544 1.33337 22.4494 2.19471 22.4494 3.25604V12.4454C22.4494 13.5067 21.544 14.368 20.4267 14.368H12.9254" stroke="#455564" stroke-width="1.5" stroke-linejoin="round"/>
  <path d="M10.0117 5.88538H18.3171" stroke="#455564" stroke-width="1.5" stroke-linejoin="round"/>
  <path d="M13.7646 9.45605H18.318" stroke="#455564" stroke-width="1.5" stroke-linejoin="round"/>
</svg>
