<svg width="24" height="24" viewBox="0 0 24 24" fill="none" xmlns="http://www.w3.org/2000/svg">
  <path d="M6.69877 15.0453C8.68553 15.0453 10.2961 13.4347 10.2961 11.448C10.2961 9.46123 8.68553 7.85065 6.69877 7.85065C4.71202 7.85065 3.10144 9.46123 3.10144 11.448C3.10144 13.4347 4.71202 15.0453 6.69877 15.0453Z" stroke="white" stroke-width="1.5" stroke-linejoin="round"/>
  <path d="M1.55072 22.6666C1.55072 19.816 3.86139 17.5053 6.71205 17.5053C9.56272 17.5053 11.8721 19.816 11.8721 22.6666" stroke="white" stroke-width="1.5" stroke-linejoin="round"/>
  <path d="M4.69354 5.85734V3.25601C4.69354 2.19468 5.59888 1.33334 6.71621 1.33334H20.4269C21.5442 1.33334 22.4495 2.19468 22.4495 3.25601V12.4453C22.4495 13.5067 21.5442 14.368 20.4269 14.368H12.9255" stroke="white" stroke-width="1.5" stroke-linejoin="round"/>
  <path d="M10.012 5.88531H18.3173" stroke="white" stroke-width="1.5" stroke-linejoin="round"/>
  <path d="M13.7641 9.45602H18.3174" stroke="white" stroke-width="1.5" stroke-linejoin="round"/>
</svg>
