<svg width="24" height="24" viewBox="0 0 24 24" fill="none" xmlns="http://www.w3.org/2000/svg">
  <path d="M16.7717 19.6467L17.6957 22.2027" stroke="white" stroke-width="1.5" stroke-linejoin="round"/>
  <path d="M7.22785 19.6467L6.30385 22.2027" stroke="white" stroke-width="1.5" stroke-linejoin="round"/>
  <path d="M22.0147 4.67749H1.98541V19.6455H22.0147V4.67749Z" stroke="white" stroke-width="1.5" stroke-linejoin="round"/>
  <path d="M22.6667 3.81336C22.6667 4.2907 22.2773 4.67736 21.796 4.67736H2.20399C1.72266 4.67736 1.33333 4.2907 1.33333 3.81336V2.66136C1.33333 2.18403 1.72266 1.79736 2.20399 1.79736H21.796C22.2773 1.79736 22.6667 2.18403 22.6667 2.66136V3.81336Z" stroke="white" stroke-width="1.5" stroke-linejoin="round"/>
  <path d="M11.668 8.61475H17.3147" stroke="white" stroke-width="1.5" stroke-linejoin="round"/>
  <path d="M11.668 12.1641H18.9826" stroke="white" stroke-width="1.5" stroke-linejoin="round"/>
  <path d="M11.668 15.7134H17.3147" stroke="white" stroke-width="1.5" stroke-linejoin="round"/>
  <path d="M6.87589 12.584C7.90241 12.584 8.73456 11.7519 8.73456 10.7254C8.73456 9.69885 7.90241 8.8667 6.87589 8.8667C5.84938 8.8667 5.01723 9.69885 5.01723 10.7254C5.01723 11.7519 5.84938 12.584 6.87589 12.584Z" stroke="white" stroke-width="1.5" stroke-linejoin="round"/>
</svg>
