<svg width="24" height="24" viewBox="0 0 24 24" fill="none" xmlns="http://www.w3.org/2000/svg">
  <path d="M16.2287 11.5627H7.77007C5.21541 11.5627 3.69141 9.40666 3.69141 6.74666V22.6667H20.3061V6.20667C20.3061 6.20667 20.2994 6.80266 20.2981 6.82666C20.2567 9.44933 18.7567 11.5627 16.2287 11.5627Z" stroke="#757575" stroke-width="1.5" stroke-linejoin="round"/>
  <path d="M5.24669 4.58801C4.38803 4.58801 3.69336 5.31201 3.69336 6.20535C3.69336 6.20535 3.69336 6.67868 3.69336 6.74668C3.69336 9.40668 5.21736 11.5627 7.77203 11.5627H16.2307C18.7587 11.5627 20.2587 9.44935 20.3014 6.82668C20.3027 6.80268 20.3094 6.20668 20.3094 6.20668C20.3094 5.31335 19.6134 4.58935 18.756 4.58935H5.24669V4.58801Z" stroke="#757575" stroke-width="1.5" stroke-linejoin="round"/>
  <path d="M16.6284 18.9374C16.6284 19.2147 16.4124 19.4388 16.1471 19.4388H7.85243C7.58576 19.4388 7.37109 19.2147 7.37109 18.9374V15.6854C7.37109 15.4081 7.58709 15.1841 7.85243 15.1841H16.1471C16.4138 15.1841 16.6284 15.4081 16.6284 15.6854V18.9374V18.9374Z" stroke="#757575" stroke-width="1.5" stroke-linejoin="round"/>
  <path d="M8.29883 4.58804C8.29883 2.79071 9.95616 1.33337 12.0002 1.33337C14.0442 1.33337 15.7015 2.79071 15.7015 4.58804" stroke="#757575" stroke-width="1.5" stroke-linejoin="round"/>
</svg>
