<svg width="24" height="24" viewBox="0 0 24 24" fill="none" xmlns="http://www.w3.org/2000/svg">
  <path d="M21 11.1668C21.0034 12.4866 20.6951 13.7887 20.1 14.9668C19.3944 16.3785 18.3098 17.5659 16.9674 18.3961C15.6251 19.2262 14.0782 19.6662 12.5 19.6668C11.1801 19.6702 9.87812 19.3618 8.7 18.7668L3 20.6668L4.9 14.9668C4.30493 13.7887 3.99656 12.4866 4 11.1668C4.00061 9.58853 4.44061 8.04163 5.27072 6.69933C6.10083 5.35703 7.28825 4.27234 8.7 3.56678C9.87812 2.97171 11.1801 2.66334 12.5 2.66678H13C15.0843 2.78177 17.053 3.66154 18.5291 5.13764C20.0052 6.61373 20.885 8.58243 21 10.6668V11.1668Z" stroke="white" stroke-width="1.5" stroke-linecap="round" stroke-linejoin="round"/>
</svg>
