<svg width="24" height="24" viewBox="0 0 24 24" fill="none" xmlns="http://www.w3.org/2000/svg">
  <path d="M16.7717 19.6467L17.6957 22.2027" stroke="white" stroke-width="1.5" stroke-linejoin="round"/>
  <path d="M7.22783 19.6467L6.30383 22.2027" stroke="white" stroke-width="1.5" stroke-linejoin="round"/>
  <path d="M22.0148 4.67737H1.98547V19.6454H22.0148V4.67737Z" stroke="white" stroke-width="1.5" stroke-linejoin="round"/>
  <path d="M22.6667 3.81336C22.6667 4.2907 22.2774 4.67736 21.796 4.67736H2.20404C1.72271 4.67736 1.33337 4.2907 1.33337 3.81336V2.66136C1.33337 2.18403 1.72271 1.79736 2.20404 1.79736H21.796C22.2774 1.79736 22.6667 2.18403 22.6667 2.66136V3.81336Z" stroke="white" stroke-width="1.5" stroke-linejoin="round"/>
  <path d="M11.668 8.61475H17.3146" stroke="white" stroke-width="1.5" stroke-linejoin="round"/>
  <path d="M11.668 12.1641H18.9826" stroke="white" stroke-width="1.5" stroke-linejoin="round"/>
  <path d="M11.668 15.7134H17.3146" stroke="white" stroke-width="1.5" stroke-linejoin="round"/>
  <path d="M6.87588 12.584C7.90239 12.584 8.73455 11.7519 8.73455 10.7254C8.73455 9.69885 7.90239 8.8667 6.87588 8.8667C5.84937 8.8667 5.01721 9.69885 5.01721 10.7254C5.01721 11.7519 5.84937 12.584 6.87588 12.584Z" stroke="white" stroke-width="1.5" stroke-linejoin="round"/>
</svg>
