<svg width="24" height="24" viewBox="0 0 24 24" fill="none" xmlns="http://www.w3.org/2000/svg">
  <path d="M4.02533 4.35474H19.9747C21.0933 4.35474 22 5.27074 22 6.40007V19.9547C22 21.0841 21.0933 22.0001 19.9747 22.0001H4.02533C2.90667 22.0001 2 21.0841 2 19.9547V6.40007C2 5.27074 2.90667 4.35474 4.02533 4.35474Z" stroke="white" stroke-width="1.5" stroke-linejoin="round"/>
  <path d="M17.6879 2V4.572" stroke="white" stroke-width="1.5" stroke-linejoin="round"/>
  <path d="M6.31213 2V4.572" stroke="white" stroke-width="1.5" stroke-linejoin="round"/>
  <path d="M2 8.90405H22" stroke="white" stroke-width="1.5" stroke-linejoin="round"/>
  <path d="M6.06245 14.2028C6.62873 14.2028 7.08778 13.7437 7.08778 13.1774C7.08778 12.6112 6.62873 12.1521 6.06245 12.1521C5.49617 12.1521 5.03712 12.6112 5.03712 13.1774C5.03712 13.7437 5.49617 14.2028 6.06245 14.2028Z" fill="white"/>
  <path d="M10.0625 14.2028C10.6287 14.2028 11.0878 13.7437 11.0878 13.1774C11.0878 12.6112 10.6287 12.1521 10.0625 12.1521C9.49617 12.1521 9.03712 12.6112 9.03712 13.1774C9.03712 13.7437 9.49617 14.2028 10.0625 14.2028Z" fill="white"/>
  <path d="M14.0625 14.2028C14.6287 14.2028 15.0878 13.7437 15.0878 13.1774C15.0878 12.6112 14.6287 12.1521 14.0625 12.1521C13.4962 12.1521 13.0371 12.6112 13.0371 13.1774C13.0371 13.7437 13.4962 14.2028 14.0625 14.2028Z" fill="white"/>
  <path d="M18.0625 14.2028C18.6287 14.2028 19.0878 13.7437 19.0878 13.1774C19.0878 12.6112 18.6287 12.1521 18.0625 12.1521C17.4962 12.1521 17.0371 12.6112 17.0371 13.1774C17.0371 13.7437 17.4962 14.2028 18.0625 14.2028Z" fill="white"/>
  <path d="M6.06245 18.2028C6.62873 18.2028 7.08778 17.7437 7.08778 17.1774C7.08778 16.6112 6.62873 16.1521 6.06245 16.1521C5.49617 16.1521 5.03712 16.6112 5.03712 17.1774C5.03712 17.7437 5.49617 18.2028 6.06245 18.2028Z" fill="white"/>
  <path d="M10.0625 18.2028C10.6287 18.2028 11.0878 17.7437 11.0878 17.1774C11.0878 16.6112 10.6287 16.1521 10.0625 16.1521C9.49617 16.1521 9.03712 16.6112 9.03712 17.1774C9.03712 17.7437 9.49617 18.2028 10.0625 18.2028Z" fill="white"/>
  <path d="M14.0625 18.2028C14.6287 18.2028 15.0878 17.7437 15.0878 17.1774C15.0878 16.6112 14.6287 16.1521 14.0625 16.1521C13.4962 16.1521 13.0371 16.6112 13.0371 17.1774C13.0371 17.7437 13.4962 18.2028 14.0625 18.2028Z" fill="white"/>
  <path d="M18.0625 18.2028C18.6287 18.2028 19.0878 17.7437 19.0878 17.1774C19.0878 16.6112 18.6287 16.1521 18.0625 16.1521C17.4962 16.1521 17.0371 16.6112 17.0371 17.1774C17.0371 17.7437 17.4962 18.2028 18.0625 18.2028Z" fill="white"/>
</svg>
