<svg width="24" height="24" viewBox="0 0 24 24" fill="none" xmlns="http://www.w3.org/2000/svg">
  <path d="M16.7715 19.6467L17.6955 22.2027" stroke="#455564" stroke-width="1.5" stroke-linejoin="round"/>
  <path d="M7.22771 19.6467L6.30371 22.2027" stroke="#455564" stroke-width="1.5" stroke-linejoin="round"/>
  <path d="M22.0147 4.67737H1.98535V19.6454H22.0147V4.67737Z" stroke="#455564" stroke-width="1.5" stroke-linejoin="round"/>
  <path d="M22.6663 3.81336C22.6663 4.2907 22.277 4.67736 21.7957 4.67736H2.20367C1.72234 4.67736 1.33301 4.2907 1.33301 3.81336V2.66136C1.33301 2.18403 1.72234 1.79736 2.20367 1.79736H21.7957C22.277 1.79736 22.6663 2.18403 22.6663 2.66136V3.81336Z" stroke="#455564" stroke-width="1.5" stroke-linejoin="round"/>
  <path d="M11.667 8.61475H17.3137" stroke="#455564" stroke-width="1.5" stroke-linejoin="round"/>
  <path d="M11.667 12.1641H18.9817" stroke="#455564" stroke-width="1.5" stroke-linejoin="round"/>
  <path d="M11.667 15.7134H17.3137" stroke="#455564" stroke-width="1.5" stroke-linejoin="round"/>
  <path d="M6.87527 12.584C7.90178 12.584 8.73394 11.7519 8.73394 10.7254C8.73394 9.69885 7.90178 8.8667 6.87527 8.8667C5.84876 8.8667 5.0166 9.69885 5.0166 10.7254C5.0166 11.7519 5.84876 12.584 6.87527 12.584Z" stroke="#455564" stroke-width="1.5" stroke-linejoin="round"/>
</svg>
