<svg width="24" height="24" viewBox="0 0 24 24" fill="none" xmlns="http://www.w3.org/2000/svg">
  <path d="M6.65288 13.3733C8.70591 13.3733 10.3702 11.709 10.3702 9.65593C10.3702 7.60291 8.70591 5.9386 6.65288 5.9386C4.59985 5.9386 2.93555 7.60291 2.93555 9.65593C2.93555 11.709 4.59985 13.3733 6.65288 13.3733Z" stroke="#455564" stroke-width="1.5" stroke-linejoin="round"/>
  <path d="M1.33301 21.2492C1.33301 18.3039 3.72101 15.9159 6.66634 15.9159C9.61167 15.9159 11.9997 18.3039 11.9997 21.2492" stroke="#455564" stroke-width="1.5" stroke-linejoin="round"/>
  <path d="M17.3208 10.1853C19.3739 10.1853 21.0382 8.52097 21.0382 6.46794C21.0382 4.41492 19.3739 2.75061 17.3208 2.75061C15.2678 2.75061 13.6035 4.41492 13.6035 6.46794C13.6035 8.52097 15.2678 10.1853 17.3208 10.1853Z" stroke="#455564" stroke-width="1.5" stroke-linejoin="round"/>
  <path d="M12.4189 15.9852C13.2296 14.0719 15.1243 12.7279 17.3336 12.7279C20.2789 12.7279 22.6669 15.1159 22.6669 18.0612" stroke="#455564" stroke-width="1.5" stroke-linejoin="round"/>
</svg>
