<svg width="24" height="24" viewBox="0 0 24 24" fill="none" xmlns="http://www.w3.org/2000/svg">
  <path d="M4.02533 4.35461H19.9747C21.0933 4.35461 22 5.27061 22 6.39995V19.9546C22 21.0839 21.0933 21.9999 19.9747 21.9999H4.02533C2.90667 21.9999 2 21.0839 2 19.9546V6.39995C2 5.27061 2.90667 4.35461 4.02533 4.35461Z" stroke="#455564" stroke-width="1.5" stroke-linejoin="round"/>
  <path d="M17.6875 2V4.572" stroke="#455564" stroke-width="1.5" stroke-linejoin="round"/>
  <path d="M6.3125 2V4.572" stroke="#455564" stroke-width="1.5" stroke-linejoin="round"/>
  <path d="M2 8.90405H22" stroke="#455564" stroke-width="1.5" stroke-linejoin="round"/>
  <path d="M6.06244 14.2026C6.62872 14.2026 7.08778 13.7436 7.08778 13.1773C7.08778 12.611 6.62872 12.152 6.06244 12.152C5.49617 12.152 5.03711 12.611 5.03711 13.1773C5.03711 13.7436 5.49617 14.2026 6.06244 14.2026Z" fill="#455564"/>
  <path d="M10.0624 14.2026C10.6287 14.2026 11.0878 13.7436 11.0878 13.1773C11.0878 12.611 10.6287 12.152 10.0624 12.152C9.49617 12.152 9.03711 12.611 9.03711 13.1773C9.03711 13.7436 9.49617 14.2026 10.0624 14.2026Z" fill="#455564"/>
  <path d="M14.0624 14.2026C14.6287 14.2026 15.0878 13.7436 15.0878 13.1773C15.0878 12.611 14.6287 12.152 14.0624 12.152C13.4962 12.152 13.0371 12.611 13.0371 13.1773C13.0371 13.7436 13.4962 14.2026 14.0624 14.2026Z" fill="#455564"/>
  <path d="M18.0624 14.2026C18.6287 14.2026 19.0878 13.7436 19.0878 13.1773C19.0878 12.611 18.6287 12.152 18.0624 12.152C17.4962 12.152 17.0371 12.611 17.0371 13.1773C17.0371 13.7436 17.4962 14.2026 18.0624 14.2026Z" fill="#455564"/>
  <path d="M6.06244 18.2026C6.62872 18.2026 7.08778 17.7436 7.08778 17.1773C7.08778 16.611 6.62872 16.152 6.06244 16.152C5.49617 16.152 5.03711 16.611 5.03711 17.1773C5.03711 17.7436 5.49617 18.2026 6.06244 18.2026Z" fill="#455564"/>
  <path d="M10.0624 18.2026C10.6287 18.2026 11.0878 17.7436 11.0878 17.1773C11.0878 16.611 10.6287 16.152 10.0624 16.152C9.49617 16.152 9.03711 16.611 9.03711 17.1773C9.03711 17.7436 9.49617 18.2026 10.0624 18.2026Z" fill="#455564"/>
  <path d="M14.0624 18.2026C14.6287 18.2026 15.0878 17.7436 15.0878 17.1773C15.0878 16.611 14.6287 16.152 14.0624 16.152C13.4962 16.152 13.0371 16.611 13.0371 17.1773C13.0371 17.7436 13.4962 18.2026 14.0624 18.2026Z" fill="#455564"/>
  <path d="M18.0624 18.2026C18.6287 18.2026 19.0878 17.7436 19.0878 17.1773C19.0878 16.611 18.6287 16.152 18.0624 16.152C17.4962 16.152 17.0371 16.611 17.0371 17.1773C17.0371 17.7436 17.4962 18.2026 18.0624 18.2026Z" fill="#455564"/>
</svg>
