<svg width="24" height="24" viewBox="0 0 24 24" fill="none" xmlns="http://www.w3.org/2000/svg">
  <path d="M16.2292 11.5625H7.77053C5.21586 11.5625 3.69186 9.40654 3.69186 6.74654V22.6665H20.3065V6.20654C20.3065 6.20654 20.2999 6.80254 20.2985 6.82654C20.2572 9.44921 18.7572 11.5625 16.2292 11.5625Z" stroke="white" stroke-width="1.5" stroke-linejoin="round"/>
  <path d="M5.24651 4.58789C4.38784 4.58789 3.69318 5.31189 3.69318 6.20522C3.69318 6.20522 3.69318 6.67856 3.69318 6.74656C3.69318 9.40656 5.21718 11.5626 7.77184 11.5626H16.2305C18.7585 11.5626 20.2585 9.44922 20.3012 6.82656C20.3025 6.80256 20.3092 6.20656 20.3092 6.20656C20.3092 5.31322 19.6132 4.58922 18.7558 4.58922H5.24651V4.58789Z" stroke="white" stroke-width="1.5" stroke-linejoin="round"/>
  <path d="M16.6291 18.9372C16.6291 19.2145 16.4131 19.4385 16.1478 19.4385H7.85313C7.58646 19.4385 7.3718 19.2145 7.3718 18.9372V15.6852C7.3718 15.4078 7.5878 15.1838 7.85313 15.1838H16.1478C16.4145 15.1838 16.6291 15.4078 16.6291 15.6852V18.9372V18.9372Z" stroke="white" stroke-width="1.5" stroke-linejoin="round"/>
  <path d="M8.29855 4.58792C8.29855 2.79059 9.95589 1.33325 11.9999 1.33325C14.0439 1.33325 15.7012 2.79059 15.7012 4.58792" stroke="white" stroke-width="1.5" stroke-linejoin="round"/>
</svg>
