<svg width="24" height="25" viewBox="0 0 24 25" fill="none" xmlns="http://www.w3.org/2000/svg">
  <path d="M2.92676 11.9851V17.7784C2.92809 18.4971 3.31076 19.0651 3.93342 19.4238L10.9841 23.4531C11.6068 23.8131 12.3748 23.8131 12.9988 23.4531L20.0494 19.4238C20.6721 19.0638 21.0561 18.4971 21.0561 17.7784L21.1401 12.2158" stroke="white" stroke-width="1.5" stroke-linecap="round" stroke-linejoin="round"/>
  <path d="M20.0958 7.0319L16.4238 4.93457" stroke="white" stroke-width="1.5" stroke-linecap="round" stroke-linejoin="round"/>
  <path d="M7.56031 4.93311L3.88965 7.03177" stroke="white" stroke-width="1.5" stroke-linecap="round" stroke-linejoin="round"/>
  <path d="M3.74902 7.13318L11.9917 11.9012" stroke="white" stroke-width="1.5" stroke-linecap="round" stroke-linejoin="round"/>
  <path d="M20.2362 7.13318L11.9922 11.9012" stroke="white" stroke-width="1.5" stroke-linecap="round" stroke-linejoin="round"/>
  <path d="M11.9922 23.2345V11.8918" stroke="white" stroke-width="1.5" stroke-linecap="round" stroke-linejoin="round"/>
  <path d="M11.9922 11.8918L14.6735 15.6771L22.9162 10.9091L20.3642 7.26379" stroke="white" stroke-width="1.5" stroke-linecap="round" stroke-linejoin="round"/>
  <path d="M3.64132 7.2572L1.08398 10.9092L9.32665 15.6772L12.008 11.8919" stroke="white" stroke-width="1.5" stroke-linecap="round" stroke-linejoin="round"/>
  <path d="M14.5603 3.12789C14.4643 2.83589 14.203 2.63322 13.8763 2.66655L12.8803 2.73855L12.6403 1.76789C12.5683 1.47055 12.3003 1.25989 11.9923 1.25989C11.6843 1.25989 11.4176 1.47055 11.3443 1.76922L11.1043 2.73855L10.1083 2.66655C9.77362 2.63589 9.51896 2.83589 9.42429 3.12789C9.32962 3.41989 9.44562 3.73855 9.70696 3.90122L10.555 4.42789L10.1803 5.35322C10.0643 5.63855 10.1563 5.96522 10.4056 6.14655C10.523 6.23055 10.6616 6.27322 10.799 6.27322C10.9523 6.27322 11.1056 6.22122 11.2296 6.11589L11.9936 5.47189L12.759 6.11589C12.9923 6.31322 13.3323 6.32522 13.5816 6.14655C13.831 5.96522 13.923 5.63855 13.807 5.35322L13.431 4.42789L14.279 3.90122C14.5403 3.73855 14.6563 3.41989 14.5603 3.12789Z" fill="white"/>
</svg>
