<svg width="24" height="24" viewBox="0 0 24 24" fill="none" xmlns="http://www.w3.org/2000/svg">
  <path d="M2.92676 11.1133V16.9066C2.92809 17.6253 3.31076 18.1933 3.93342 18.5519L10.9841 22.5813C11.6068 22.9413 12.3748 22.9413 12.9988 22.5813L20.0494 18.5519C20.6721 18.1919 21.0561 17.6253 21.0561 16.9066L21.1401 11.3439" stroke="#757575" stroke-width="1.5" stroke-linecap="round" stroke-linejoin="round"/>
  <path d="M20.0963 6.16008L16.4243 4.06274" stroke="#757575" stroke-width="1.5" stroke-linecap="round" stroke-linejoin="round"/>
  <path d="M7.56031 4.06128L3.88965 6.15995" stroke="#757575" stroke-width="1.5" stroke-linecap="round" stroke-linejoin="round"/>
  <path d="M3.74951 6.26135L11.9922 11.0294" stroke="#757575" stroke-width="1.5" stroke-linecap="round" stroke-linejoin="round"/>
  <path d="M20.2362 6.26135L11.9922 11.0294" stroke="#757575" stroke-width="1.5" stroke-linecap="round" stroke-linejoin="round"/>
  <path d="M11.9922 22.3627V11.02" stroke="#757575" stroke-width="1.5" stroke-linecap="round" stroke-linejoin="round"/>
  <path d="M11.9922 11.02L14.6735 14.8053L22.9162 10.0373L20.3642 6.39197" stroke="#757575" stroke-width="1.5" stroke-linecap="round" stroke-linejoin="round"/>
  <path d="M3.64132 6.38538L1.08398 10.0374L9.32665 14.8054L12.008 11.02" stroke="#757575" stroke-width="1.5" stroke-linecap="round" stroke-linejoin="round"/>
  <path d="M14.5598 2.25606C14.4638 1.96406 14.2025 1.76139 13.8758 1.79473L12.8798 1.86673L12.6398 0.896062C12.5678 0.598728 12.2998 0.388062 11.9918 0.388062C11.6838 0.388062 11.4171 0.598728 11.3438 0.897395L11.1038 1.86673L10.1078 1.79473C9.77313 1.76406 9.51847 1.96406 9.4238 2.25606C9.32913 2.54806 9.44513 2.86673 9.70647 3.0294L10.5545 3.55606L10.1798 4.4814C10.0638 4.76673 10.1558 5.09339 10.4051 5.27473C10.5225 5.35873 10.6611 5.4014 10.7985 5.4014C10.9518 5.4014 11.1051 5.3494 11.2291 5.24406L11.9931 4.60006L12.7585 5.24406C12.9918 5.4414 13.3318 5.45339 13.5811 5.27473C13.8305 5.09339 13.9225 4.76673 13.8065 4.4814L13.4305 3.55606L14.2785 3.0294C14.5398 2.86673 14.6558 2.54806 14.5598 2.25606Z" fill="#757575"/>
</svg>
