<svg width="1280" height="470" viewBox="0 0 1280 470" fill="none" xmlns="http://www.w3.org/2000/svg">
  <path d="M1530.9 235.381C1451.25 235.381 1378.96 267.819 1325.54 320.549C1292.68 187.403 1176.01 88.9449 1037.11 88.9449C955.51 88.9449 881.604 122.947 827.831 177.972C748.204 69.8398 622.501 0 480.985 0C353.85 0 239.462 56.3556 159.787 146.202C111.064 110.199 51.4663 88.9449 -12.9691 88.9449C-107.38 88.9449 -191.466 134.483 -246 205.43V470H1820C1788.17 335.334 1670.85 235.381 1530.9 235.381Z" fill="#54637A"/>
  <path fill-rule="evenodd" clip-rule="evenodd" d="M385.889 228.112L393 232L385.889 235.888L382 243L378.111 235.888L371 232L378.111 228.112L382 221L385.889 228.112Z" fill="white" fill-opacity="0.5"/>
  <path fill-rule="evenodd" clip-rule="evenodd" d="M297.121 123.879L301 126L297.121 128.121L295 132L292.879 128.121L289 126L292.879 123.879L295 120L297.121 123.879Z" fill="white" fill-opacity="0.5"/>
  <path fill-rule="evenodd" clip-rule="evenodd" d="M635.828 317.172L641 320L635.828 322.828L633 328L630.172 322.828L625 320L630.172 317.172L633 312L635.828 317.172Z" fill="white" fill-opacity="0.5"/>
</svg>
