<svg width="116" height="40" viewBox="0 0 116 40" fill="none" xmlns="http://www.w3.org/2000/svg">
<g opacity="0.8">
<path d="M2.0001 3.05006H1.8901C1.8295 3.0429 1.76812 3.05322 1.7132 3.0798C1.65827 3.10638 1.61209 3.1481 1.5801 3.20006C1.56029 3.2522 1.55541 3.30883 1.56601 3.36359C1.57661 3.41835 1.60227 3.46907 1.6401 3.51006C5.3801 7.80006 9.5501 12.2201 13.3401 16.1801L4.3401 3.43006L2.0001 3.05006Z" fill="#333333"/>
<path d="M1.11005 3.67003C1.0654 3.62486 1.0357 3.56707 1.02497 3.50447C1.01423 3.44187 1.02299 3.37749 1.05005 3.32003C1.08252 3.25744 1.13365 3.20649 1.19635 3.17424C1.25906 3.14199 1.33024 3.13003 1.40005 3.14003H1.53005L4.17005 3.57003L14.62 18.3C10.24 13.73 5.43005 8.63003 1.11005 3.67003Z" fill="#333333"/>
<path d="M15.2999 18C15.2308 17.9942 15.1643 17.971 15.1066 17.9325C15.0489 17.8941 15.0018 17.8416 14.9699 17.78C13.9099 16.36 9.91994 10.72 6.70994 6.19999L3.42994 1.56999C3.38012 1.49968 3.34856 1.41809 3.33808 1.33256C3.32761 1.24703 3.33856 1.16024 3.36994 1.07999C3.36994 0.98999 3.51994 0.88999 3.75994 0.88999C3.81962 0.881234 3.88026 0.881234 3.93994 0.88999L16.4099 2.88999C16.6029 2.92565 16.7787 3.02408 16.9099 3.16999C16.9655 3.23205 17.0075 3.305 17.0334 3.3842C17.0592 3.4634 17.0682 3.5471 17.0599 3.62999C16.6599 6.79999 15.7999 15.86 15.6399 17.51C15.6399 17.92 15.3899 17.97 15.2999 17.97" fill="#333333"/>
<path d="M29.4199 20.61H29.2399L16.7599 18.53C16.5641 18.5025 16.3857 18.4026 16.2599 18.25C16.2044 18.1879 16.1623 18.1149 16.1365 18.0358C16.1107 17.9566 16.1016 17.8728 16.1099 17.79C16.5199 14.63 17.3999 5.56996 17.5599 3.91996C17.5599 3.49996 17.8099 3.45996 17.8999 3.45996C17.9705 3.465 18.0387 3.48781 18.0982 3.52628C18.1576 3.56474 18.2064 3.61761 18.2399 3.67996C19.0699 4.80996 21.7599 8.67996 24.3699 12.34C26.4199 15.26 28.5499 18.29 29.7199 19.93C29.7731 19.9985 29.8082 20.0792 29.8222 20.1648C29.8361 20.2504 29.8285 20.3381 29.7999 20.42C29.7617 20.485 29.7055 20.5375 29.6381 20.5712C29.5706 20.605 29.4948 20.6184 29.4199 20.61Z" fill="#333333"/>
<path d="M33.6899 14.32L31.3899 14C31.351 13.9951 31.3153 13.9761 31.2895 13.9466C31.2637 13.9171 31.2496 13.8791 31.2499 13.84V10.84C31.2483 10.8023 31.2592 10.7652 31.2809 10.7345C31.3026 10.7037 31.3339 10.681 31.3699 10.67C31.4064 10.6604 31.445 10.662 31.4806 10.6745C31.5162 10.687 31.5473 10.7097 31.5699 10.74L33.8299 14C33.8402 14.0359 33.8402 14.074 33.8299 14.11C33.83 14.1534 33.8135 14.1952 33.7837 14.2268C33.754 14.2584 33.7132 14.2774 33.6699 14.28L33.6899 14.32Z" fill="#333333"/>
<path d="M13 39.11L13.15 37.42C13.35 35.14 13.93 29.7 14.39 25.33C14.63 23.12 14.83 21.2 14.95 20.07C14.9707 19.9802 15.0219 19.9002 15.0947 19.8437C15.1676 19.7872 15.2578 19.7577 15.35 19.76C15.4142 19.7605 15.4772 19.7773 15.5332 19.8088C15.5891 19.8403 15.6362 19.8854 15.67 19.94C16.97 21.94 19.77 25.83 21.28 27.94C21.2975 27.974 21.3067 28.0117 21.3067 28.05C21.3067 28.0883 21.2975 28.126 21.28 28.16C21.2643 28.1938 21.2407 28.2233 21.211 28.246C21.1814 28.2686 21.1468 28.2838 21.11 28.29C20.1052 28.4565 19.1473 28.8349 18.3 29.4C17.4693 29.9934 16.7457 30.7239 16.16 31.56C15.5431 32.4395 15.0202 33.3813 14.6 34.37C14.1741 35.3859 13.8035 36.424 13.49 37.48L13 39.11Z" fill="#333333"/>
<path d="M22 27.46C21.9253 27.4554 21.8527 27.4331 21.7884 27.3948C21.724 27.3565 21.6697 27.3034 21.63 27.24C20.63 25.87 16.22 19.64 16.08 19.43C16.049 19.3805 16.0325 19.3233 16.0325 19.265C16.0325 19.2066 16.049 19.1494 16.08 19.1C16.1069 19.0555 16.1451 19.019 16.1909 18.9944C16.2366 18.9698 16.2881 18.9579 16.34 18.96H16.4L17.76 19.19L25.64 20.5L29.41 21.13C29.4659 21.133 29.5196 21.1527 29.5642 21.1866C29.6087 21.2205 29.6421 21.2669 29.66 21.32C29.668 21.3767 29.6589 21.4346 29.634 21.4862C29.6091 21.5378 29.5694 21.5809 29.52 21.61L26.94 23.67C25.3 24.97 23.45 26.46 22.52 27.19L22.45 27.25C22.3989 27.3102 22.3363 27.3598 22.266 27.3959C22.1956 27.4319 22.1188 27.4537 22.04 27.46" fill="#333333"/>
<path d="M30.4301 19.8401C30.3815 19.8408 30.3333 19.8314 30.2885 19.8124C30.2437 19.7935 30.2034 19.7654 30.1701 19.7301C30.1101 19.6601 29.9101 19.3801 29.6401 18.9901L29.4701 18.7301C28.4001 17.1801 25.1201 12.5501 25.0801 12.5001V12.4401V12.3601C25.1802 12.0418 25.3359 11.7439 25.5401 11.4801C25.9847 10.8642 26.6271 10.4195 27.3601 10.2201C27.8244 10.0817 28.3056 10.0077 28.7901 10.0001C29.3873 9.9811 29.9794 10.1154 30.5101 10.3901C30.5901 10.4367 30.6301 10.4667 30.6301 10.4801H30.7001V10.7101C30.7001 11.0101 30.7001 11.7101 30.7001 12.5101C30.7001 13.4501 30.7001 14.5101 30.7001 15.0401C30.7001 16.6701 30.7601 19.4201 30.7501 19.4901C30.74 19.574 30.6981 19.651 30.633 19.7049C30.5678 19.7589 30.4845 19.7858 30.4001 19.7801" fill="#333333"/>
<path d="M46.8001 13.26C46.8332 12.8059 46.6939 12.356 46.4101 12C46.2862 11.8574 46.1323 11.744 45.9594 11.668C45.7865 11.5919 45.5989 11.555 45.4101 11.56C45.2117 11.5541 45.0133 11.5743 44.8201 11.62C44.706 11.6517 44.6047 11.7181 44.5301 11.81C44.4597 11.9773 44.4322 12.1594 44.4501 12.34V14.59C44.4432 14.6442 44.4517 14.6992 44.4747 14.7487C44.4977 14.7983 44.5343 14.8403 44.5801 14.87C44.7633 14.9322 44.9573 14.956 45.1501 14.94C45.3751 14.9541 45.6006 14.9214 45.8123 14.844C46.024 14.7665 46.2173 14.646 46.3801 14.49C46.6856 14.1435 46.8435 13.6913 46.8201 13.23L46.8001 13.26ZM47.9001 13.23C47.9037 13.5054 47.8463 13.7781 47.7322 14.0288C47.6181 14.2795 47.4501 14.5018 47.2401 14.68C46.7828 15.0674 46.1993 15.2738 45.6001 15.26C45.2101 15.26 44.8201 15.26 44.4501 15.26V17C44.4342 17.1643 44.4618 17.3298 44.5301 17.48C44.6065 17.581 44.7108 17.6575 44.8301 17.7C45.0325 17.7615 45.24 17.805 45.4501 17.83C45.4501 17.83 45.5301 17.88 45.5301 17.96C45.5301 18.04 45.5301 18.1 45.4501 18.1H44.6801H43.9501H43.2101H42.4301C42.4301 18.1 42.3501 18.05 42.3501 17.96C42.3501 17.87 42.3501 17.83 42.4301 17.83C42.7098 17.8168 42.983 17.7417 43.2301 17.61C43.3139 17.5341 43.3779 17.4388 43.4162 17.3325C43.4546 17.2261 43.4662 17.1119 43.4501 17V12.4C43.4619 12.2317 43.431 12.0631 43.3601 11.91C43.2837 11.809 43.1794 11.7325 43.0601 11.69C42.8545 11.6276 42.6436 11.5841 42.4301 11.56C42.4301 11.56 42.3501 11.56 42.3501 11.43C42.3501 11.3 42.3501 11.3 42.4301 11.3H43.2101H43.9501H44.6701H45.4501C46.0964 11.251 46.7396 11.4277 47.2701 11.8C47.4835 11.9825 47.6515 12.2121 47.7608 12.4707C47.8702 12.7293 47.9178 13.0098 47.9001 13.29" fill="#333333"/>
<path d="M54.41 14.9999L53.55 12.4999L52.63 14.9999H54.41ZM57.41 17.8999C57.41 17.9899 57.41 18.0399 57.33 18.0399H56.57H55.94H55.2H54.41C54.36 18.0399 54.33 17.9899 54.33 17.8999C54.33 17.8099 54.33 17.7699 54.39 17.7699C54.6026 17.7718 54.8134 17.731 55.01 17.6499C55.0695 17.6267 55.12 17.585 55.1541 17.5311C55.1883 17.4771 55.2044 17.4137 55.2 17.3499C55.1887 17.2131 55.1584 17.0785 55.11 16.9499L54.55 15.3099H52.55L52 16.8499C51.9395 17.0035 51.9024 17.1653 51.89 17.3299C51.89 17.6099 52.16 17.7699 52.69 17.7999C52.69 17.7999 52.75 17.7999 52.75 17.9299C52.75 18.0599 52.75 18.0699 52.67 18.0699L52 17.9999H51.4H50.87H50.3C50.25 17.9999 50.23 17.9999 50.23 17.8699C50.23 17.7399 50.23 17.7299 50.34 17.7299C50.5715 17.7189 50.7944 17.6388 50.98 17.4999C51.2048 17.2901 51.3763 17.0295 51.48 16.7399L53.76 11.1299C53.7722 11.1038 53.7922 11.0821 53.8173 11.0678C53.8424 11.0534 53.8712 11.0472 53.9 11.0499C53.98 11.0499 54.03 11.0499 54.05 11.1199L56.05 16.7399C56.1327 17.0127 56.2924 17.2558 56.51 17.4399C56.7384 17.6064 57.0083 17.7067 57.29 17.7299C57.35 17.7299 57.39 17.7799 57.39 17.8599" fill="#333333"/>
<path d="M64.4301 13C64.4301 12 64.0101 11.56 63.1801 11.56C62.9713 11.5557 62.7628 11.5792 62.5601 11.63C62.4993 11.6415 62.4418 11.6663 62.3916 11.7026C62.3415 11.7389 62.3 11.7858 62.2701 11.84C62.2158 12.0008 62.192 12.1704 62.2001 12.34V14.52C62.4398 14.5379 62.6804 14.5379 62.9201 14.52C63.1253 14.5388 63.3322 14.5157 63.5281 14.4521C63.7241 14.3885 63.9051 14.2857 64.0601 14.15C64.3262 13.8282 64.4586 13.4166 64.4301 13ZM66.9201 17.9C66.9201 17.99 66.9201 18.04 66.8401 18.04C66.6436 18.0502 66.4467 18.0502 66.2501 18.04H65.8501H65.4101H64.9601L63.4801 15.62C63.3513 15.391 63.1895 15.1821 63.0001 15C62.7574 14.8843 62.488 14.8359 62.2201 14.86V17C62.2063 17.1652 62.2374 17.331 62.3101 17.48C62.3843 17.5833 62.4893 17.6603 62.6101 17.7C62.8128 17.7604 63.0202 17.8039 63.2301 17.83C63.2901 17.83 63.3201 17.88 63.3201 17.96C63.3201 18.04 63.3201 18.1 63.2401 18.1H62.4601H61.7201L61.0001 18H60.2301C60.1801 18 60.1501 17.95 60.1501 17.86C60.1501 17.77 60.1501 17.73 60.2301 17.73C60.44 17.7039 60.6474 17.6604 60.8501 17.6C60.9694 17.5575 61.0737 17.481 61.1501 17.38C61.1927 17.2581 61.2097 17.1288 61.2001 17V12.4C61.216 12.2358 61.1885 12.0702 61.1201 11.92C61.0531 11.8141 60.9501 11.736 60.8301 11.7C60.6258 11.6308 60.4145 11.5839 60.2001 11.56C60.1501 11.56 60.1201 11.56 60.1201 11.43C60.1201 11.3 60.1201 11.3 60.2001 11.3H60.9701H61.7001H62.4401H63.2201C63.8173 11.2628 64.4105 11.4208 64.9101 11.75C65.0991 11.898 65.2508 12.0881 65.3532 12.3051C65.4557 12.5221 65.506 12.7601 65.5001 13C65.5028 13.371 65.3632 13.7288 65.1101 14C64.8196 14.3192 64.4508 14.557 64.0401 14.69L65.5501 17.14C65.6695 17.3429 65.8425 17.509 66.0501 17.62C66.3037 17.7327 66.5739 17.8037 66.8501 17.83C66.9001 17.83 66.9201 17.88 66.9201 17.96" fill="#333333"/>
<path d="M78.74 17.93C78.74 18.02 78.74 18.07 78.66 18.07H77.86H77.12H76.39H75.61C75.55 18.07 75.53 18.02 75.53 17.93C75.53 17.84 75.53 17.8 75.6 17.8C75.8712 17.7816 76.1362 17.7103 76.38 17.59C76.4563 17.5239 76.5154 17.4401 76.552 17.346C76.5886 17.2519 76.6016 17.1503 76.59 17.05V17L76.39 12.26L74 18.14C74 18.2 73.93 18.22 73.86 18.22C73.79 18.22 73.74 18.22 73.73 18.14L71.51 12.47L71.19 17C71.1854 17.0465 71.1854 17.0934 71.19 17.14C71.1802 17.231 71.1955 17.3229 71.2343 17.4058C71.2731 17.4886 71.3338 17.5593 71.41 17.61C71.6613 17.7387 71.9379 17.8104 72.22 17.82C72.22 17.82 72.28 17.87 72.28 17.95C72.28 18.03 72.28 18.09 72.2 18.09H71.5H70.87H70.21H69.58C69.58 18.09 69.51 18.04 69.51 17.95C69.51 17.86 69.51 17.82 69.6 17.82C69.8959 17.8011 70.185 17.7229 70.45 17.59C70.5382 17.5176 70.6085 17.4257 70.6554 17.3217C70.7022 17.2176 70.7243 17.1041 70.72 16.99L71.23 12.39C71.2347 12.3368 71.2347 12.2832 71.23 12.23C71.2369 12.1397 71.2192 12.0492 71.1787 11.9682C71.1382 11.8871 71.0764 11.8186 71 11.77C70.7463 11.6463 70.4715 11.5716 70.19 11.55C70.19 11.55 70.12 11.55 70.12 11.42C70.1114 11.3906 70.1114 11.3594 70.12 11.33C70.1294 11.3255 70.1396 11.3232 70.15 11.3232C70.1604 11.3232 70.1706 11.3255 70.18 11.33H70.69H71.1H71.59H72.1L74.2 16.76L76.37 11.33H76.88H77.33H77.82H78.34C78.34 11.33 78.42 11.33 78.42 11.46C78.42 11.59 78.42 11.59 78.35 11.59C78.0765 11.6024 77.8096 11.6777 77.57 11.81C77.4931 11.8734 77.4335 11.9553 77.3967 12.0479C77.36 12.1406 77.3474 12.2411 77.36 12.34V12.43L77.58 17.03C77.5761 17.1967 77.6139 17.3617 77.69 17.51C77.7687 17.613 77.8768 17.6898 78 17.73C78.2062 17.7902 78.4169 17.8336 78.63 17.86C78.63 17.86 78.71 17.91 78.71 17.99" fill="#333333"/>
<path d="M87.6399 16.45C87.3921 16.9757 87.1783 17.5169 86.9999 18.07C85.7699 18.07 84.8899 18.01 84.3699 18.01C83.8499 18.01 82.9799 18.01 81.7499 18.07C81.7499 18.07 81.6699 18.02 81.6699 17.93C81.6699 17.84 81.6699 17.8 81.7499 17.8C81.96 17.775 82.1675 17.7315 82.3699 17.67C82.4892 17.6275 82.5935 17.551 82.6699 17.45C82.7426 17.301 82.7737 17.1352 82.7599 16.97V12.37C82.7737 12.2048 82.7426 12.039 82.6699 11.89C82.6029 11.7841 82.4999 11.706 82.3799 11.67C82.1762 11.5986 81.9647 11.5516 81.7499 11.53C81.7499 11.53 81.6699 11.53 81.6699 11.4C81.6699 11.27 81.6699 11.27 81.7499 11.27C82.5699 11.27 83.4099 11.32 84.2699 11.32C85.1299 11.32 85.9799 11.32 86.7999 11.27C86.8706 11.7746 86.9809 12.2728 87.1299 12.76C87.1299 12.83 87.0699 12.86 86.9599 12.86C86.9362 12.8634 86.9121 12.8583 86.8919 12.8454C86.8718 12.8326 86.8569 12.8129 86.8499 12.79C86.7721 12.4464 86.5743 12.1418 86.292 11.931C86.0097 11.7202 85.6615 11.617 85.3099 11.64H84.3099C84.2318 11.6299 84.1524 11.638 84.0779 11.6638C84.0035 11.6895 83.936 11.7321 83.8807 11.7883C83.8255 11.8445 83.7841 11.9127 83.7596 11.9876C83.7352 12.0625 83.7285 12.1421 83.7399 12.22V14.4H84.9999C85.1201 14.4134 85.2418 14.3997 85.356 14.3599C85.4702 14.3201 85.5741 14.2552 85.6599 14.17C85.8094 13.933 85.8923 13.6601 85.8999 13.38C85.8999 13.33 85.8999 13.3 86.0399 13.3C86.1799 13.3 86.1699 13.3 86.1699 13.38C86.1699 13.46 86.1699 13.75 86.1699 13.99C86.1699 14.23 86.1699 14.43 86.1699 14.58C86.1699 14.73 86.1699 14.92 86.1699 15.16C86.1699 15.4 86.1699 15.62 86.1699 15.79C86.1699 15.96 86.1699 15.87 86.0399 15.87C85.9099 15.87 85.8999 15.87 85.8999 15.79C85.8896 15.4933 85.8036 15.2041 85.6499 14.95C85.5674 14.8626 85.4658 14.7955 85.353 14.7539C85.2403 14.7122 85.1194 14.6972 84.9999 14.71H83.7499V17.12C83.738 17.1976 83.7446 17.2769 83.769 17.3515C83.7934 17.4261 83.8351 17.4938 83.8906 17.5493C83.9461 17.6048 84.0139 17.6465 84.0885 17.6709C84.163 17.6954 84.2423 17.7019 84.3199 17.69H85.3899C85.8014 17.6832 86.2016 17.5544 86.5399 17.32C86.9007 17.0851 87.191 16.7568 87.3799 16.37C87.3799 16.37 87.3799 16.37 87.4599 16.37C87.5027 16.3598 87.5472 16.3598 87.5899 16.37C87.5998 16.3992 87.5998 16.4308 87.5899 16.46" fill="#333333"/>
<path d="M98.58 11.4C98.58 11.48 98.58 11.53 98.5 11.53C98.2104 11.5482 97.9277 11.6265 97.67 11.76C97.5827 11.8317 97.5149 11.9243 97.4729 12.0292C97.431 12.1341 97.4162 12.2479 97.43 12.36L97.32 18.13C97.32 18.19 97.28 18.22 97.2 18.22C97.171 18.2173 97.1428 18.2088 97.117 18.1951C97.0913 18.1813 97.0685 18.1626 97.05 18.14L92.05 12.45L91.94 17C91.9359 17.0232 91.9359 17.0468 91.94 17.07C91.9298 17.1717 91.9466 17.2742 91.9888 17.3673C92.0309 17.4603 92.0969 17.5406 92.18 17.6C92.4414 17.7332 92.7273 17.8114 93.02 17.83C93.08 17.83 93.1 17.88 93.1 17.96C93.1 18.04 93.1 18.1 93.02 18.1H92.32H91.68L91 18H90.38C90.38 18 90.3 17.95 90.3 17.86C90.3 17.77 90.3 17.73 90.39 17.73C90.6801 17.7145 90.9634 17.636 91.22 17.5C91.3047 17.4261 91.3705 17.3332 91.4123 17.2289C91.454 17.1246 91.4704 17.0119 91.46 16.9L91.63 12.3C91.643 12.1962 91.6285 12.0909 91.5882 11.9944C91.5478 11.8979 91.483 11.8137 91.4 11.75C91.1355 11.6144 90.8465 11.5328 90.55 11.51C90.55 11.51 90.48 11.51 90.48 11.38C90.48 11.25 90.48 11.25 90.56 11.25H91.04H91.45H91.86H92.28L97 16.53V12.36C97.0123 12.2509 96.9967 12.1405 96.9547 12.0391C96.9127 11.9377 96.8458 11.8485 96.76 11.78C96.491 11.6273 96.1892 11.5416 95.88 11.53C95.88 11.53 95.8 11.53 95.8 11.4C95.8 11.27 95.8 11.27 95.88 11.27H96.59H97.22H97.88H98.5C98.56 11.27 98.58 11.27 98.58 11.4Z" fill="#333333"/>
<path d="M104.8 17.93C104.8 18.02 104.8 18.07 104.72 18.07H103.94H103.21H102.48H101.7C101.64 18.07 101.62 18.02 101.62 17.93C101.62 17.84 101.62 17.8 101.7 17.8C101.98 17.7852 102.252 17.7102 102.5 17.58C102.58 17.5017 102.641 17.4058 102.677 17.2999C102.714 17.194 102.725 17.081 102.71 16.97V12.37C102.72 12.2028 102.692 12.0355 102.63 11.88C102.554 11.779 102.449 11.7026 102.33 11.66C102.124 11.5998 101.913 11.5564 101.7 11.53C101.64 11.53 101.62 11.53 101.62 11.4C101.62 11.27 101.62 11.27 101.7 11.27H102.48H103.21H103.94H104.72C104.72 11.27 104.8 11.27 104.8 11.4C104.8 11.53 104.8 11.53 104.72 11.53C104.507 11.5552 104.296 11.5987 104.09 11.66C103.971 11.7026 103.867 11.779 103.79 11.88C103.726 12.0349 103.698 12.2027 103.71 12.37V17C103.7 17.164 103.728 17.3281 103.79 17.48C103.867 17.581 103.971 17.6575 104.09 17.7C104.293 17.7615 104.5 17.805 104.71 17.83C104.77 17.83 104.8 17.88 104.8 17.96" fill="#333333"/>
<path d="M112 15L111.14 12.5L110.21 15H112ZM115 17.9C115 17.99 115 18.04 114.92 18.04H114.16H113.53H112.79H112C112 18.04 111.92 17.99 111.92 17.9C111.92 17.81 111.92 17.77 111.98 17.77C112.196 17.7703 112.41 17.7296 112.61 17.65C112.668 17.6243 112.717 17.5821 112.751 17.5287C112.784 17.4754 112.802 17.4132 112.8 17.35C112.789 17.212 112.755 17.0769 112.7 16.95L112.14 15.31H110.14L109.58 16.82C109.515 16.972 109.477 17.1346 109.47 17.3C109.47 17.58 109.73 17.74 110.26 17.77C110.26 17.77 110.32 17.77 110.32 17.9C110.32 18.03 110.32 18.04 110.24 18.04H109.59H108.99H108.46H107.9C107.9 18.04 107.82 18.04 107.82 17.91C107.82 17.78 107.82 17.77 107.94 17.77C108.171 17.7572 108.394 17.6773 108.58 17.54C108.801 17.329 108.969 17.0685 109.07 16.78L111.36 11.17C111.371 11.1446 111.389 11.1233 111.412 11.1089C111.435 11.0945 111.463 11.0879 111.49 11.09C111.57 11.09 111.62 11.09 111.64 11.16L113.64 16.78C113.723 17.0527 113.883 17.2958 114.1 17.48C114.33 17.6433 114.599 17.7433 114.88 17.77C114.95 17.77 114.98 17.82 114.98 17.9" fill="#333333"/>
</g>
</svg>
